<svg
    width="24"
    height="24"
    viewBox="0 0 24 24"
    fill="#000000"
    xmlns="http://www.w3.org/2000/svg"
    className="kakao-icon"
  >
    <path
      fillRule="evenodd"
      clipRule="evenodd"
      d="M12 2C6.48 2 2 5.93 2 10.71C2 13.77 3.98 16.44 7 17.72V22L11.18 18.81C11.78 18.87 12.39 18.91 13 18.91C18.52 18.91 23 14.98 23 10.2C23 5.42 18.52 2 13 2H12ZM12 17.28C11.42 17.28 10.85 17.23 10.29 17.14L9.91 17.09L8 18.4V16.5L7.64 16.37C4.9 15.3 3 13.13 3 10.71C3 6.86 7.03 4 12 4C16.97 4 21 6.86 21 10.71C21 14.56 16.97 17.28 12 17.28Z"
      fill="#000000"
    />
  </svg>